<svg width="36" height="36" viewBox="0 0 36 36" fill="none" xmlns="http://www.w3.org/2000/svg">
<g clip-path="url(#clip0_799_83)">
<path d="M18 0C14.4399 0 10.9598 1.05568 7.99974 3.03355C5.03966 5.01141 2.73255 7.82263 1.37018 11.1117C0.00779915 14.4008 -0.348661 18.02 0.345873 21.5116C1.04041 25.0033 2.75474 28.2106 5.27209 30.7279C7.78943 33.2453 10.9967 34.9596 14.4884 35.6541C17.98 36.3487 21.5992 35.9922 24.8883 34.6298C28.1774 33.2675 30.9886 30.9604 32.9665 28.0003C34.9443 25.0402 36 21.5601 36 18C35.9948 13.2277 34.0968 8.65232 30.7222 5.27778C27.3477 1.90324 22.7723 0.00516162 18 0ZM18 33C15.0333 33 12.1332 32.1203 9.66645 30.472C7.19972 28.8238 5.27713 26.4811 4.14182 23.7403C3.0065 20.9994 2.70945 17.9834 3.28823 15.0736C3.86701 12.1639 5.29562 9.49119 7.39341 7.3934C9.49119 5.29561 12.1639 3.867 15.0737 3.28822C17.9834 2.70944 20.9994 3.00649 23.7403 4.14181C26.4812 5.27712 28.8238 7.19971 30.4721 9.66645C32.1203 12.1332 33 15.0333 33 18C32.9956 21.9769 31.4139 25.7897 28.6018 28.6018C25.7897 31.4139 21.9769 32.9956 18 33Z" fill="#0092FF"/>
<path d="M22.9395 19.9395L19.5 23.379V9C19.5 8.60218 19.342 8.22064 19.0607 7.93934C18.7794 7.65804 18.3978 7.5 18 7.5C17.6022 7.5 17.2206 7.65804 16.9393 7.93934C16.658 8.22064 16.5 8.60218 16.5 9V23.379L13.0605 19.9395C12.9221 19.7962 12.7566 19.682 12.5736 19.6033C12.3906 19.5247 12.1938 19.4834 11.9946 19.4816C11.7954 19.4799 11.5979 19.5178 11.4136 19.5933C11.2292 19.6687 11.0617 19.7801 10.9209 19.9209C10.7801 20.0617 10.6687 20.2292 10.5933 20.4136C10.5178 20.5979 10.4799 20.7954 10.4816 20.9946C10.4834 21.1938 10.5247 21.3906 10.6033 21.5736C10.682 21.7566 10.7962 21.9221 10.9395 22.0605L16.9395 28.0605C17.2208 28.3417 17.6023 28.4997 18 28.4997C18.3977 28.4997 18.7792 28.3417 19.0605 28.0605L25.0605 22.0605C25.3337 21.7776 25.4849 21.3987 25.4815 21.0054C25.4781 20.6121 25.3203 20.2359 25.0422 19.9578C24.7641 19.6797 24.3879 19.5219 23.9946 19.5185C23.6013 19.5151 23.2224 19.6663 22.9395 19.9395Z" fill="white"/>
</g>
<defs>
<clipPath id="clip0_799_83">
<rect width="36" height="36" fill="white"/>
</clipPath>
</defs>
</svg>
