<svg width="242" height="112" viewBox="0 0 242 112" fill="none" xmlns="http://www.w3.org/2000/svg">
<path d="M9.47664 39.6313H18.5872V45H2.52168V16.4481H9.47664V39.6313ZM32.2353 45.3254C30.0119 45.3254 28.0054 44.8509 26.2158 43.9018C24.4534 42.9528 23.0569 41.5971 22.0266 39.8346C21.0233 38.0722 20.5217 36.0114 20.5217 33.6524C20.5217 31.3206 21.0369 29.2734 22.0672 27.5109C23.0976 25.7213 24.5076 24.352 26.2972 23.403C28.0867 22.454 30.0932 21.9795 32.3167 21.9795C34.5401 21.9795 36.5466 22.454 38.3362 23.403C40.1257 24.352 41.5357 25.7213 42.5661 27.5109C43.5964 29.2734 44.1116 31.3206 44.1116 33.6524C44.1116 35.9843 43.5829 38.045 42.5254 39.8346C41.495 41.5971 40.0715 42.9528 38.2548 43.9018C36.4652 44.8509 34.4587 45.3254 32.2353 45.3254ZM32.2353 39.3059C33.5639 39.3059 34.6892 38.8178 35.6111 37.8417C36.5601 36.8655 37.0346 35.4691 37.0346 33.6524C37.0346 31.8357 36.5737 30.4393 35.6518 29.4632C34.757 28.4871 33.6453 27.999 32.3167 27.999C30.9609 27.999 29.8357 28.4871 28.9409 29.4632C28.0461 30.4122 27.5987 31.8086 27.5987 33.6524C27.5987 35.4691 28.0325 36.8655 28.9002 37.8417C29.795 38.8178 30.9067 39.3059 32.2353 39.3059ZM58.1321 45.3254C55.9087 45.3254 53.9022 44.8509 52.1126 43.9018C50.3501 42.9528 48.9537 41.5971 47.9234 39.8346C46.9201 38.0722 46.4185 36.0114 46.4185 33.6524C46.4185 31.3206 46.9337 29.2734 47.964 27.5109C48.9944 25.7213 50.4044 24.352 52.194 23.403C53.9835 22.454 55.99 21.9795 58.2135 21.9795C60.4369 21.9795 62.4434 22.454 64.2329 23.403C66.0225 24.352 67.4325 25.7213 68.4629 27.5109C69.4932 29.2734 70.0084 31.3206 70.0084 33.6524C70.0084 35.9843 69.4797 38.045 68.4222 39.8346C67.3918 41.5971 65.9683 42.9528 64.1516 43.9018C62.362 44.8509 60.3555 45.3254 58.1321 45.3254ZM58.1321 39.3059C59.4607 39.3059 60.586 38.8178 61.5079 37.8417C62.4569 36.8655 62.9314 35.4691 62.9314 33.6524C62.9314 31.8357 62.4705 30.4393 61.5486 29.4632C60.6538 28.4871 59.5421 27.999 58.2135 27.999C56.8577 27.999 55.7324 28.4871 54.8377 29.4632C53.9429 30.4122 53.4955 31.8086 53.4955 33.6524C53.4955 35.4691 53.9293 36.8655 54.797 37.8417C55.6918 38.8178 56.8035 39.3059 58.1321 39.3059ZM87.5674 45L80.6531 35.4827V45H73.6981V14.9025H80.6531V31.5375L87.5267 22.3049H96.1086L86.6726 33.6931L96.1899 45H87.5674ZM106.28 30.6834C106.28 27.8634 106.89 25.3553 108.11 23.159C109.33 20.9356 111.025 19.2138 113.194 17.9936C115.39 16.7463 117.871 16.1227 120.637 16.1227C124.026 16.1227 126.928 17.0175 129.341 18.8071C131.754 20.5966 133.368 23.037 134.181 26.1281H126.535C125.965 24.935 125.152 24.0267 124.094 23.403C123.064 22.7794 121.884 22.4676 120.556 22.4676C118.414 22.4676 116.678 23.2132 115.35 24.7045C114.021 26.1959 113.357 28.1888 113.357 30.6834C113.357 33.1779 114.021 35.1709 115.35 36.6622C116.678 38.1535 118.414 38.8992 120.556 38.8992C121.884 38.8992 123.064 38.5873 124.094 37.9637C125.152 37.3401 125.965 36.4317 126.535 35.2387H134.181C133.368 38.3297 131.754 40.7701 129.341 42.5597C126.928 44.3221 124.026 45.2034 120.637 45.2034C117.871 45.2034 115.39 44.5933 113.194 43.3731C111.025 42.1258 109.33 40.404 108.11 38.2077C106.89 36.0114 106.28 33.5033 106.28 30.6834ZM137.057 33.6118C137.057 31.2799 137.491 29.2327 138.359 27.4703C139.254 25.7078 140.46 24.352 141.979 23.403C143.497 22.454 145.192 21.9795 147.063 21.9795C148.662 21.9795 150.059 22.3049 151.252 22.9556C152.472 23.6064 153.408 24.4605 154.058 25.518V22.3049H161.013V45H154.058V41.7869C153.38 42.8444 152.431 43.6985 151.211 44.3492C150.018 45 148.622 45.3254 147.022 45.3254C145.178 45.3254 143.497 44.8509 141.979 43.9018C140.46 42.9257 139.254 41.5564 138.359 39.7939C137.491 38.0044 137.057 35.9436 137.057 33.6118ZM154.058 33.6524C154.058 31.9171 153.57 30.5478 152.594 29.5445C151.645 28.5413 150.479 28.0397 149.096 28.0397C147.713 28.0397 146.534 28.5413 145.558 29.5445C144.609 30.5207 144.134 31.8764 144.134 33.6118C144.134 35.3471 144.609 36.73 145.558 37.7603C146.534 38.7636 147.713 39.2652 149.096 39.2652C150.479 39.2652 151.645 38.7636 152.594 37.7603C153.57 36.7571 154.058 35.3878 154.058 33.6524ZM178.694 39.1025V45H175.155C172.634 45 170.668 44.3899 169.258 43.1697C167.848 41.9225 167.143 39.9024 167.143 37.1096V28.0803H164.377V22.3049H167.143V16.7734H174.098V22.3049H178.653V28.0803H174.098V37.1909C174.098 37.8688 174.261 38.3569 174.586 38.6551C174.911 38.9534 175.454 39.1025 176.213 39.1025H178.694ZM181.185 33.6524C181.185 31.2934 181.66 29.2327 182.609 27.4703C183.585 25.7078 184.927 24.352 186.635 23.403C188.371 22.454 190.35 21.9795 192.573 21.9795C195.42 21.9795 197.793 22.7252 199.691 24.2165C201.616 25.7078 202.877 27.8092 203.474 30.5207H196.071C195.448 28.7853 194.241 27.9176 192.451 27.9176C191.177 27.9176 190.16 28.4193 189.401 29.4225C188.642 30.3987 188.262 31.8086 188.262 33.6524C188.262 35.4962 188.642 36.9198 189.401 37.923C190.16 38.8992 191.177 39.3872 192.451 39.3872C194.241 39.3872 195.448 38.5196 196.071 36.7842H203.474C202.877 39.4415 201.616 41.5293 199.691 43.0477C197.766 44.5662 195.393 45.3254 192.573 45.3254C190.35 45.3254 188.371 44.8509 186.635 43.9018C184.927 42.9528 183.585 41.5971 182.609 39.8346C181.66 38.0722 181.185 36.0114 181.185 33.6524ZM221.144 22.0608C223.747 22.0608 225.835 22.9285 227.408 24.6639C228.981 26.3721 229.767 28.7311 229.767 31.7408V45H222.853V32.6763C222.853 31.1579 222.459 29.9784 221.673 29.1378C220.887 28.2973 219.829 27.877 218.501 27.877C217.172 27.877 216.115 28.2973 215.328 29.1378C214.542 29.9784 214.149 31.1579 214.149 32.6763V45H207.194V14.9025H214.149V25.3553C214.854 24.352 215.816 23.5522 217.036 22.9556C218.257 22.3591 219.626 22.0608 221.144 22.0608Z" fill="white"/>
<path d="M127.927 61.854C131.305 61.854 133.905 62.7366 135.727 64.5017C137.569 66.2669 138.489 68.7249 138.489 71.8756C138.489 75.0264 137.569 77.4748 135.727 79.221C133.905 80.9672 131.305 81.8403 127.927 81.8403H122.318V61.854H127.927ZM127.927 80.7584C130.944 80.7584 133.241 79.9803 134.816 78.4239C136.392 76.8485 137.179 74.6657 137.179 71.8756C137.179 69.0665 136.392 66.8743 134.816 65.2989C133.241 63.7235 130.944 62.9359 127.927 62.9359H123.599V80.7584H127.927ZM156.286 73.0714C156.286 73.7547 156.267 74.2672 156.229 74.6088H142.876C142.914 75.9944 143.218 77.1617 143.788 78.1107C144.357 79.0597 145.107 79.7715 146.037 80.246C146.967 80.7205 147.982 80.9577 149.083 80.9577C150.601 80.9577 151.873 80.5876 152.898 79.8474C153.923 79.0882 154.568 78.0632 154.834 76.7726H156.172C155.869 78.3479 155.09 79.6291 153.838 80.6161C152.585 81.5841 151 82.0681 149.083 82.0681C147.641 82.0681 146.35 81.7454 145.211 81.1001C144.072 80.4548 143.18 79.5342 142.535 78.3384C141.889 77.1237 141.567 75.7097 141.567 74.0963C141.567 72.483 141.88 71.0784 142.506 69.8827C143.152 68.6869 144.044 67.7759 145.183 67.1495C146.321 66.5042 147.622 66.1815 149.083 66.1815C150.564 66.1815 151.845 66.5042 152.927 67.1495C154.027 67.7759 154.863 68.6205 155.432 69.6834C156.001 70.7273 156.286 71.8566 156.286 73.0714ZM155.005 73.5554C155.062 72.1888 154.815 71.031 154.265 70.082C153.733 69.133 153.003 68.4307 152.072 67.9752C151.142 67.5006 150.136 67.2634 149.055 67.2634C147.973 67.2634 146.967 67.5006 146.037 67.9752C145.126 68.4307 144.376 69.133 143.788 70.082C143.218 71.031 142.914 72.1888 142.876 73.5554H155.005ZM161.439 60.7721V81.8403H160.158V60.7721H161.439ZM166.791 62.9359C166.487 62.9359 166.231 62.841 166.022 62.6512C165.813 62.4424 165.709 62.1672 165.709 61.8255C165.709 61.5028 165.813 61.2371 166.022 61.0283C166.231 60.8195 166.487 60.7152 166.791 60.7152C167.094 60.7152 167.351 60.8195 167.559 61.0283C167.768 61.2371 167.873 61.5028 167.873 61.8255C167.873 62.1672 167.768 62.4424 167.559 62.6512C167.351 62.841 167.094 62.9359 166.791 62.9359ZM167.417 66.3808V81.8403H166.136V66.3808H167.417ZM177.352 80.4453L183.046 66.3808H184.413L178.007 81.8403H176.669L170.263 66.3808H171.658L177.352 80.4453ZM201.161 73.0714C201.161 73.7547 201.142 74.2672 201.104 74.6088H187.751C187.789 75.9944 188.093 77.1617 188.662 78.1107C189.231 79.0597 189.981 79.7715 190.911 80.246C191.841 80.7205 192.857 80.9577 193.958 80.9577C195.476 80.9577 196.748 80.5876 197.773 79.8474C198.798 79.0882 199.443 78.0632 199.709 76.7726H201.047C200.743 78.3479 199.965 79.6291 198.712 80.6161C197.459 81.5841 195.875 82.0681 193.958 82.0681C192.515 82.0681 191.224 81.7454 190.086 81.1001C188.947 80.4548 188.055 79.5342 187.409 78.3384C186.764 77.1237 186.441 75.7097 186.441 74.0963C186.441 72.483 186.755 71.0784 187.381 69.8827C188.026 68.6869 188.918 67.7759 190.057 67.1495C191.196 66.5042 192.496 66.1815 193.958 66.1815C195.438 66.1815 196.719 66.5042 197.801 67.1495C198.902 67.7759 199.737 68.6205 200.307 69.6834C200.876 70.7273 201.161 71.8566 201.161 73.0714ZM199.879 73.5554C199.936 72.1888 199.69 71.031 199.139 70.082C198.608 69.133 197.877 68.4307 196.947 67.9752C196.017 67.5006 195.011 67.2634 193.929 67.2634C192.847 67.2634 191.841 67.5006 190.911 67.9752C190 68.4307 189.25 69.133 188.662 70.082C188.093 71.031 187.789 72.1888 187.751 73.5554H199.879ZM206.314 69.5695C206.693 68.4307 207.367 67.5671 208.335 66.9787C209.303 66.3713 210.537 66.0676 212.036 66.0676V67.4057H211.609C210.091 67.4057 208.829 67.8423 207.823 68.7154C206.817 69.5695 206.314 70.9741 206.314 72.929V81.8403H205.033V66.3808H206.314V69.5695ZM227.058 66.3808L218.061 89.1003H216.751L219.627 81.8403L213.136 66.3808H214.531L220.339 80.4168L225.748 66.3808H227.058Z" fill="white"/>
</svg>
