<svg width="161" height="75" viewBox="0 0 161 75" fill="none" xmlns="http://www.w3.org/2000/svg">
<path d="M6.30471 26.4282H12.3659V30H1.67765V11.0047H6.30471V26.4282ZM21.4458 30.2165C19.9666 30.2165 18.6317 29.9008 17.4411 29.2694C16.2686 28.638 15.3395 27.7361 14.654 26.5635C13.9866 25.391 13.6529 24.02 13.6529 22.4506C13.6529 20.8992 13.9956 19.5373 14.6811 18.3647C15.3666 17.1741 16.3046 16.2631 17.4952 15.6318C18.6858 15.0004 20.0207 14.6847 21.4999 14.6847C22.9791 14.6847 24.314 15.0004 25.5046 15.6318C26.6952 16.2631 27.6333 17.1741 28.3187 18.3647C29.0042 19.5373 29.347 20.8992 29.347 22.4506C29.347 24.002 28.9952 25.3729 28.2917 26.5635C27.6062 27.7361 26.6591 28.638 25.4505 29.2694C24.2599 29.9008 22.925 30.2165 21.4458 30.2165ZM21.4458 26.2118C22.3297 26.2118 23.0784 25.8871 23.6917 25.2376C24.3231 24.5882 24.6387 23.6592 24.6387 22.4506C24.6387 21.242 24.3321 20.3129 23.7187 19.6635C23.1235 19.0141 22.3838 18.6894 21.4999 18.6894C20.598 18.6894 19.8493 19.0141 19.254 19.6635C18.6587 20.2949 18.3611 21.2239 18.3611 22.4506C18.3611 23.6592 18.6497 24.5882 19.227 25.2376C19.8223 25.8871 20.5619 26.2118 21.4458 26.2118ZM38.6747 30.2165C37.1954 30.2165 35.8605 29.9008 34.67 29.2694C33.4974 28.638 32.5684 27.7361 31.8829 26.5635C31.2154 25.391 30.8817 24.02 30.8817 22.4506C30.8817 20.8992 31.2245 19.5373 31.91 18.3647C32.5954 17.1741 33.5335 16.2631 34.7241 15.6318C35.9147 15.0004 37.2496 14.6847 38.7288 14.6847C40.208 14.6847 41.5429 15.0004 42.7335 15.6318C43.9241 16.2631 44.8621 17.1741 45.5476 18.3647C46.2331 19.5373 46.5758 20.8992 46.5758 22.4506C46.5758 24.002 46.2241 25.3729 45.5205 26.5635C44.8351 27.7361 43.888 28.638 42.6794 29.2694C41.4888 29.9008 40.1539 30.2165 38.6747 30.2165ZM38.6747 26.2118C39.5586 26.2118 40.3072 25.8871 40.9205 25.2376C41.5519 24.5882 41.8676 23.6592 41.8676 22.4506C41.8676 21.242 41.5609 20.3129 40.9476 19.6635C40.3523 19.0141 39.6127 18.6894 38.7288 18.6894C37.8268 18.6894 37.0782 19.0141 36.4829 19.6635C35.8876 20.2949 35.59 21.2239 35.59 22.4506C35.59 23.6592 35.8786 24.5882 36.4558 25.2376C37.0511 25.8871 37.7907 26.2118 38.6747 26.2118ZM58.2576 30L53.6576 23.6682V30H49.0306V9.97647H53.6576V21.0435L58.2306 14.9012H63.94L57.6623 22.4776L63.9941 30H58.2576ZM70.7068 20.4753C70.7068 18.5992 71.1127 16.9306 71.9245 15.4694C72.7362 13.9902 73.8637 12.8447 75.3068 12.0329C76.768 11.2031 78.4186 10.7882 80.2586 10.7882C82.5135 10.7882 84.4437 11.3835 86.0492 12.5741C87.6547 13.7647 88.728 15.3882 89.2692 17.4447H84.1821C83.8033 16.651 83.2621 16.0467 82.5586 15.6318C81.8731 15.2169 81.0884 15.0094 80.2045 15.0094C78.7794 15.0094 77.6249 15.5055 76.7409 16.4976C75.857 17.4898 75.415 18.8157 75.415 20.4753C75.415 22.1349 75.857 23.4608 76.7409 24.4529C77.6249 25.4451 78.7794 25.9412 80.2045 25.9412C81.0884 25.9412 81.8731 25.7337 82.5586 25.3188C83.2621 24.9039 83.8033 24.2996 84.1821 23.5059H89.2692C88.728 25.5624 87.6547 27.1859 86.0492 28.3765C84.4437 29.549 82.5135 30.1353 80.2586 30.1353C78.4186 30.1353 76.768 29.7294 75.3068 28.9176C73.8637 28.0878 72.7362 26.9424 71.9245 25.4812C71.1127 24.02 70.7068 22.3514 70.7068 20.4753ZM91.1827 22.4235C91.1827 20.8722 91.4714 19.5102 92.0486 18.3376C92.6439 17.1651 93.4467 16.2631 94.4569 15.6318C95.467 15.0004 96.5945 14.6847 97.8392 14.6847C98.9035 14.6847 99.8325 14.9012 100.626 15.3341C101.438 15.7671 102.06 16.3353 102.493 17.0388V14.9012H107.12V30H102.493V27.8624C102.042 28.5659 101.411 29.1341 100.599 29.5671C99.8055 30 98.8765 30.2165 97.8121 30.2165C96.5855 30.2165 95.467 29.9008 94.4569 29.2694C93.4467 28.62 92.6439 27.709 92.0486 26.5365C91.4714 25.3459 91.1827 23.9749 91.1827 22.4235ZM102.493 22.4506C102.493 21.2961 102.169 20.3851 101.519 19.7176C100.888 19.0502 100.112 18.7165 99.1921 18.7165C98.2721 18.7165 97.4874 19.0502 96.838 19.7176C96.2067 20.3671 95.891 21.269 95.891 22.4235C95.891 23.578 96.2067 24.498 96.838 25.1835C97.4874 25.851 98.2721 26.1847 99.1921 26.1847C100.112 26.1847 100.888 25.851 101.519 25.1835C102.169 24.5161 102.493 23.6051 102.493 22.4506ZM118.883 26.0765V30H116.529C114.851 30 113.544 29.5941 112.605 28.7824C111.667 27.9525 111.198 26.6086 111.198 24.7506V18.7435H109.358V14.9012H111.198V11.2212H115.825V14.9012H118.856V18.7435H115.825V24.8047C115.825 25.2557 115.934 25.5804 116.15 25.7788C116.367 25.9773 116.727 26.0765 117.233 26.0765H118.883ZM120.54 22.4506C120.54 20.8812 120.856 19.5102 121.488 18.3376C122.137 17.1651 123.03 16.2631 124.166 15.6318C125.321 15.0004 126.638 14.6847 128.117 14.6847C130.011 14.6847 131.59 15.1808 132.852 16.1729C134.133 17.1651 134.972 18.5631 135.369 20.3671H130.444C130.029 19.2125 129.226 18.6353 128.036 18.6353C127.188 18.6353 126.511 18.969 126.006 19.6365C125.501 20.2859 125.249 21.2239 125.249 22.4506C125.249 23.6773 125.501 24.6243 126.006 25.2918C126.511 25.9412 127.188 26.2659 128.036 26.2659C129.226 26.2659 130.029 25.6886 130.444 24.5341H135.369C134.972 26.302 134.133 27.691 132.852 28.7012C131.571 29.7114 129.993 30.2165 128.117 30.2165C126.638 30.2165 125.321 29.9008 124.166 29.2694C123.03 28.638 122.137 27.7361 121.488 26.5635C120.856 25.391 120.54 24.02 120.54 22.4506ZM147.125 14.7388C148.857 14.7388 150.246 15.3161 151.292 16.4706C152.338 17.6071 152.861 19.1765 152.861 21.1788V30H148.261V21.8012C148.261 20.791 148 20.0063 147.477 19.4471C146.954 18.8878 146.25 18.6082 145.366 18.6082C144.482 18.6082 143.779 18.8878 143.256 19.4471C142.732 20.0063 142.471 20.791 142.471 21.8012V30H137.844V9.97647H142.471V16.9306C142.94 16.2631 143.58 15.731 144.392 15.3341C145.204 14.9373 146.115 14.7388 147.125 14.7388Z" fill="white"/>
<path d="M84.0801 41.7033V42.4231H80.2919V55H79.4395V42.4231H75.6513V41.7033H84.0801ZM90.7685 44.5066C91.9808 44.5066 92.972 44.8854 93.7423 45.6431C94.5126 46.3881 94.8977 47.4993 94.8977 48.9767V55H94.0643V49.0335C94.0643 47.8087 93.7549 46.8742 93.1362 46.2302C92.5174 45.5736 91.6777 45.2453 90.617 45.2453C89.5058 45.2453 88.6156 45.5989 87.9463 46.306C87.2897 47.0131 86.9614 48.0612 86.9614 49.4502V55H86.109V40.9835H86.9614V46.8932C87.2518 46.1229 87.738 45.5357 88.4198 45.1316C89.1017 44.7149 89.8846 44.5066 90.7685 44.5066ZM107.172 49.1661C107.172 49.6207 107.16 49.9616 107.135 50.1889H98.2512C98.2764 51.1107 98.4785 51.8873 98.8573 52.5187C99.2361 53.1501 99.7349 53.6236 100.354 53.9393C100.972 54.255 101.648 54.4128 102.38 54.4128C103.391 54.4128 104.237 54.1666 104.918 53.6741C105.6 53.169 106.03 52.4871 106.206 51.6285H107.097C106.895 52.6765 106.377 53.5289 105.544 54.1855C104.71 54.8295 103.656 55.1515 102.38 55.1515C101.421 55.1515 100.562 54.9369 99.8044 54.5075C99.0467 54.0782 98.4532 53.4658 98.0239 52.6702C97.5946 51.8621 97.3799 50.9213 97.3799 49.848C97.3799 48.7747 97.5883 47.8402 98.005 47.0447C98.4343 46.2492 99.0278 45.6431 99.7854 45.2264C100.543 44.797 101.408 44.5824 102.38 44.5824C103.365 44.5824 104.218 44.797 104.937 45.2264C105.67 45.6431 106.225 46.205 106.604 46.9121C106.983 47.6066 107.172 48.358 107.172 49.1661ZM106.32 49.4881C106.358 48.5789 106.194 47.8087 105.828 47.1773C105.474 46.5459 104.988 46.0787 104.369 45.7756C103.75 45.46 103.081 45.3021 102.361 45.3021C101.642 45.3021 100.972 45.46 100.354 45.7756C99.7475 46.0787 99.2488 46.5459 98.8573 47.1773C98.4785 47.8087 98.2764 48.5789 98.2512 49.4881H106.32ZM122.273 55L118.863 49.3366H118.788H115.947V55H115.094V41.7033H118.75C120.227 41.7033 121.332 42.0505 122.065 42.7451C122.81 43.4396 123.182 44.3614 123.182 45.5105C123.182 46.5333 122.892 47.3793 122.311 48.0486C121.743 48.7052 120.909 49.1093 119.811 49.2608L123.296 55H122.273ZM115.947 48.6168H118.788C119.962 48.6168 120.84 48.3327 121.421 47.7645C122.001 47.1962 122.292 46.4449 122.292 45.5105C122.292 43.4775 121.111 42.4609 118.75 42.4609H115.947V48.6168ZM126.147 42.4231C125.945 42.4231 125.775 42.3599 125.636 42.2336C125.497 42.0947 125.427 41.9116 125.427 41.6844C125.427 41.4697 125.497 41.2929 125.636 41.154C125.775 41.0151 125.945 40.9456 126.147 40.9456C126.349 40.9456 126.52 41.0151 126.659 41.154C126.798 41.2929 126.867 41.4697 126.867 41.6844C126.867 41.9116 126.798 42.0947 126.659 42.2336C126.52 42.3599 126.349 42.4231 126.147 42.4231ZM126.564 44.7149V55H125.712V44.7149H126.564ZM129.158 49.848C129.158 48.7873 129.367 47.8592 129.783 47.0636C130.213 46.2681 130.8 45.6557 131.545 45.2264C132.302 44.797 133.161 44.5824 134.121 44.5824C135.169 44.5824 136.078 44.8475 136.848 45.3779C137.619 45.8956 138.162 46.5712 138.477 47.4046V40.9835H139.33V55H138.477V52.2725C138.174 53.1185 137.644 53.813 136.886 54.356C136.129 54.8864 135.207 55.1515 134.121 55.1515C133.161 55.1515 132.302 54.9369 131.545 54.5075C130.8 54.0656 130.213 53.4468 129.783 52.6513C129.367 51.8431 129.158 50.9087 129.158 49.848ZM138.477 49.848C138.477 48.9515 138.288 48.1622 137.909 47.4804C137.543 46.7858 137.038 46.2555 136.394 45.8893C135.75 45.5105 135.03 45.3211 134.234 45.3211C133.401 45.3211 132.669 45.5042 132.037 45.8704C131.406 46.2239 130.913 46.7416 130.56 47.4235C130.206 48.1054 130.029 48.9136 130.029 49.848C130.029 50.7824 130.206 51.5906 130.56 52.2725C130.913 52.9544 131.406 53.4784 132.037 53.8446C132.681 54.2108 133.414 54.3939 134.234 54.3939C135.03 54.3939 135.75 54.2108 136.394 53.8446C137.05 53.4658 137.562 52.9354 137.928 52.2535C138.294 51.559 138.477 50.7572 138.477 49.848ZM151.695 49.1661C151.695 49.6207 151.683 49.9616 151.657 50.1889H142.774C142.799 51.1107 143.001 51.8873 143.38 52.5187C143.759 53.1501 144.258 53.6236 144.877 53.9393C145.495 54.255 146.171 54.4128 146.903 54.4128C147.913 54.4128 148.759 54.1666 149.441 53.6741C150.123 53.169 150.553 52.4871 150.729 51.6285H151.62C151.418 52.6765 150.9 53.5289 150.066 54.1855C149.233 54.8295 148.179 55.1515 146.903 55.1515C145.944 55.1515 145.085 54.9369 144.327 54.5075C143.57 54.0782 142.976 53.4658 142.547 52.6702C142.117 51.8621 141.903 50.9213 141.903 49.848C141.903 48.7747 142.111 47.8402 142.528 47.0447C142.957 46.2492 143.551 45.6431 144.308 45.2264C145.066 44.797 145.931 44.5824 146.903 44.5824C147.888 44.5824 148.741 44.797 149.46 45.2264C150.193 45.6431 150.748 46.205 151.127 46.9121C151.506 47.6066 151.695 48.358 151.695 49.1661ZM150.843 49.4881C150.881 48.5789 150.717 47.8087 150.351 47.1773C149.997 46.5459 149.511 46.0787 148.892 45.7756C148.273 45.46 147.604 45.3021 146.884 45.3021C146.165 45.3021 145.495 45.46 144.877 45.7756C144.27 46.0787 143.772 46.5459 143.38 47.1773C143.001 47.8087 142.799 48.5789 142.774 49.4881H150.843Z" fill="white"/>
</svg>
